<svg width="101" height="26" viewBox="0 0 101 26" fill="none" xmlns="http://www.w3.org/2000/svg">
<path d="M2.5304 0.496129C2.25212 0.0190771 1.63981 -0.142059 1.16275 0.136221C0.685703 0.414501 0.524567 1.02682 0.802847 1.50387L2.5304 0.496129ZM98.6337 0.745507C98.4931 0.211406 97.9462 -0.107627 97.4121 0.0329255L88.7085 2.32337C88.1744 2.46392 87.8553 3.01083 87.9959 3.54493C88.1364 4.07903 88.6833 4.39807 89.2174 4.25751L96.954 2.22157L98.99 9.95816C99.1305 10.4923 99.6775 10.8113 100.212 10.6707C100.746 10.5302 101.065 9.98328 100.924 9.44918L98.6337 0.745507ZM1.66663 1C0.802847 1.50387 0.803161 1.50441 0.803529 1.50504C0.803723 1.50537 0.804145 1.50609 0.804533 1.50675C0.805311 1.50808 0.806304 1.50977 0.807513 1.51182C0.80993 1.51593 0.813212 1.52148 0.81736 1.52846C0.825656 1.54241 0.83742 1.56206 0.852673 1.58723C0.88318 1.63755 0.927651 1.70994 0.986274 1.80291C1.10351 1.98884 1.27739 2.25717 1.50941 2.59611C1.97338 3.27391 2.67021 4.23464 3.6119 5.38382C5.49475 7.68154 8.36011 10.737 12.3045 13.7907C20.2017 19.9047 32.412 26 49.6666 26V25V24C32.9213 24 21.1316 18.0953 13.5288 12.2093C9.72314 9.26296 6.9635 6.31846 5.15885 4.11618C4.25679 3.01536 3.59425 2.10109 3.15978 1.46639C2.94258 1.14908 2.78247 0.901789 2.67803 0.736157C2.62582 0.653346 2.58752 0.590964 2.56298 0.55047C2.5507 0.530223 2.54187 0.515449 2.53645 0.506331C2.53373 0.501772 2.53188 0.498627 2.53087 0.496919C2.53037 0.496065 2.53008 0.49557 2.53 0.495438C2.52996 0.495371 2.53006 0.495544 2.53004 0.495511C2.5302 0.495774 2.5304 0.496129 1.66663 1ZM49.6666 25V26C66.9213 26 79.1316 19.9047 87.0288 13.7907C90.9731 10.737 93.8385 7.68154 95.7214 5.38382C96.663 4.23464 97.3599 3.27391 97.8238 2.59611C98.0559 2.25717 98.2297 1.98884 98.347 1.80291C98.4056 1.70994 98.4501 1.63755 98.4806 1.58723C98.4958 1.56206 98.5076 1.54241 98.5159 1.52846C98.52 1.52148 98.5233 1.51593 98.5257 1.51182C98.5269 1.50977 98.5279 1.50808 98.5287 1.50675C98.5291 1.50609 98.5295 1.50537 98.5297 1.50504C98.5301 1.50441 98.5304 1.50387 97.6666 1C96.8028 0.496129 96.8031 0.495774 96.8032 0.495511C96.8032 0.495544 96.8033 0.495371 96.8033 0.495438C96.8032 0.49557 96.8029 0.496065 96.8024 0.496919C96.8014 0.498627 96.7995 0.501772 96.7968 0.506331C96.7914 0.515449 96.7825 0.530223 96.7703 0.55047C96.7457 0.590964 96.7074 0.653346 96.6552 0.736157C96.5508 0.901789 96.3907 1.14908 96.1735 1.46639C95.739 2.10109 95.0765 3.01536 94.1744 4.11618C92.3698 6.31846 89.6101 9.26296 85.8045 12.2093C78.2017 18.0953 66.412 24 49.6666 24V25Z" fill="#ACACAC"/>
</svg>
