<svg width="240" height="48" viewBox="0 0 240 48" fill="none" xmlns="http://www.w3.org/2000/svg">
<path d="M0 23.0113C0 14.9566 0 10.9293 1.56754 7.85284C2.94639 5.1467 5.14656 2.94653 7.8527 1.56768C10.9292 0.000139117 14.9565 0.000139025 23.0112 0.000139025H24.9888C33.0435 0.000139025 37.0708 0.000139117 40.1473 1.56768C42.8534 2.94653 45.0536 5.1467 46.4324 7.85284C48 10.9293 48 14.9567 48 23.0113V24.9889C48 33.0436 48 37.0709 46.4324 40.1474C45.0536 42.8536 42.8534 45.0537 40.1473 46.4326C37.0708 48.0001 33.0435 48.0001 24.9888 48.0001H23.0112C14.9565 48.0001 10.9292 48.0001 7.8527 46.4326C5.14656 45.0537 2.94639 42.8536 1.56754 40.1474C0 37.0709 0 33.0436 0 24.9889V23.0113Z" fill="#88EF1B"/>
<path d="M25.539 39.6932L29.5457 26.8363C30.7611 22.936 27.4473 19.1201 23.4151 19.7769L17.1046 39.6932H25.539Z" fill="#131313"/>
<path d="M12.073 12.1156L38.4256 7.15422L35.782 16.2968L9.57943 21.0004L12.073 12.1156Z" fill="#131313"/>
<path d="M196.424 22.1124C197.636 22.1124 198.679 22.4147 199.551 23.0204C200.432 23.6181 201.107 24.4384 201.576 25.4804C202.044 26.5224 202.277 27.6981 202.277 29.0065C202.277 30.3148 202.044 31.4907 201.576 32.5325C201.107 33.5745 200.432 34.403 199.551 35.0169C198.679 35.6228 197.632 35.9266 196.412 35.9266C195.185 35.9265 194.152 35.6225 193.312 35.0169C193.039 34.8179 192.79 34.5943 192.56 34.3502V41.378H190.391V22.4752H192.317V23.9353C192.61 23.5838 192.94 23.2727 193.312 23.0082C194.16 22.4109 195.197 22.1125 196.424 22.1124ZM182.418 22.1124C183.605 22.1124 184.623 22.3266 185.471 22.7547C186.327 23.1748 186.942 23.8135 187.313 24.6697C187.499 25.0732 187.616 25.5131 187.664 25.9891C187.713 26.4577 187.737 26.9513 187.737 27.4683V35.562H185.822V33.5204C185.385 34.188 184.845 34.7203 184.199 35.1141C183.318 35.6553 182.243 35.9266 180.975 35.9266C179.998 35.9265 179.179 35.7472 178.516 35.3919C177.862 35.0284 177.364 34.5528 177.025 33.9631C176.694 33.3734 176.529 32.7266 176.529 32.0238C176.529 31.3374 176.657 30.7434 176.916 30.2426C177.182 29.7338 177.554 29.3133 178.03 28.9822C178.507 28.6429 179.078 28.3774 179.74 28.1836C180.362 28.014 181.057 27.8672 181.824 27.7461C182.599 27.6168 183.383 27.5004 184.174 27.3954C184.675 27.3289 185.155 27.2607 185.614 27.1975C185.589 26.2069 185.357 25.4607 184.914 24.9596C184.429 24.4022 183.589 24.1245 182.393 24.1245C181.602 24.1246 180.908 24.3063 180.31 24.6697C179.72 25.0251 179.304 25.6067 179.062 26.4145L177.013 25.7964C177.328 24.6493 177.938 23.7476 178.843 23.0933C179.748 22.4391 180.939 22.1124 182.418 22.1124ZM221.419 22.1124C222.736 22.1124 223.854 22.4148 224.775 23.0204C225.704 23.6262 226.4 24.4913 226.86 25.6141C227.329 26.7368 227.531 28.0738 227.466 29.6245H217.428C217.509 30.8782 217.85 31.8717 218.451 32.6054C219.145 33.4536 220.135 33.878 221.419 33.878C222.283 33.878 223.035 33.68 223.673 33.2843C224.311 32.8885 224.811 32.3189 225.174 31.5759L227.247 32.2912C226.739 33.4461 225.971 34.3424 224.945 34.9804C223.928 35.6104 222.785 35.9265 221.516 35.9266C220.232 35.9266 219.108 35.6431 218.147 35.0777C217.194 34.5041 216.451 33.7082 215.918 32.6905C215.384 31.6646 215.119 30.4688 215.119 29.1037C215.119 27.674 215.38 26.4374 215.905 25.3954C216.43 24.3458 217.162 23.5389 218.098 22.9735C219.043 22.4 220.151 22.1124 221.419 22.1124ZM105.367 10.8537C107.675 10.8537 109.73 11.0732 111.53 11.5117C113.33 11.9271 114.83 12.619 116.03 13.5881C117.23 14.5343 118.142 15.793 118.765 17.3624C119.388 18.9318 119.701 20.8588 119.701 23.1436C119.701 25.4516 119.388 27.4134 118.765 29.0291C118.142 30.6216 117.231 31.9034 116.03 32.8728C114.83 33.8419 113.33 34.5454 111.53 34.9839C109.73 35.4224 107.675 35.6419 105.367 35.6419C103.036 35.6419 100.971 35.4223 99.171 34.9839C97.3708 34.5454 95.8694 33.8422 94.6693 32.8728C93.4691 31.9034 92.5581 30.6216 91.9349 29.0291C91.3118 27.4135 91.0009 25.4516 91.0009 23.1436C91.0009 20.8588 91.3118 18.9318 91.9349 17.3624C92.5581 15.7929 93.4691 14.5344 94.6693 13.5881C95.8694 12.6187 97.3708 11.9271 99.171 11.5117C100.971 11.0733 103.036 10.8537 105.367 10.8537ZM165.799 32.0117L172.355 18.1141H174.343V35.5499H172.294V22.852L166.371 35.562H165.218L159.294 22.852V35.562H157.246V18.1141H159.209L165.799 32.0117ZM206.631 28.7773L212.119 22.4752H214.919L209.14 29.0186L215.598 35.562H212.581L206.631 29.2617V35.562H204.438L204.449 22.4752H206.631V28.7773ZM239.621 24.4388H235.065V35.562H232.907V24.4388H228.352V22.4752H239.621V24.4388ZM75.4627 17.1558C78.3497 17.1558 80.6899 19.4963 80.6901 22.3832V35.1922H75.4627V17.1558ZM184.272 29.2131C183.593 29.3019 182.95 29.398 182.345 29.503C181.739 29.5999 181.194 29.7181 180.709 29.8554C180.354 29.9685 180.019 30.1136 179.704 30.2912C179.397 30.4689 179.146 30.6995 178.952 30.9822C178.767 31.2568 178.673 31.5999 178.673 32.0117C178.673 32.3669 178.763 32.7061 178.94 33.0291C179.126 33.352 179.408 33.6153 179.787 33.8172C180.175 34.0192 180.681 34.1211 181.303 34.1211C182.078 34.121 182.748 33.9824 183.313 33.7079C183.887 33.4251 184.348 33.0578 184.695 32.6054C185.043 32.1451 185.269 31.6447 185.374 31.1037C185.495 30.6998 185.561 30.251 185.569 29.7582C185.577 29.4818 185.578 29.241 185.582 29.036C185.141 29.0959 184.704 29.1565 184.272 29.2131ZM196.086 24.0881C195.238 24.0881 194.534 24.2982 193.977 24.7183C193.42 25.1302 193.005 25.7081 192.73 26.4509C192.456 27.1858 192.317 28.0375 192.317 29.0065C192.317 29.9597 192.451 30.8125 192.718 31.5638C192.992 32.3066 193.411 32.8927 193.977 33.3207C194.542 33.7408 195.266 33.9509 196.147 33.9509C197.011 33.9509 197.725 33.7325 198.291 33.2964C198.856 32.8602 199.281 32.2705 199.563 31.5273C199.846 30.7761 199.987 29.9354 199.987 29.0065C199.987 28.0861 199.846 27.2545 199.563 26.5117C199.289 25.7686 198.86 25.1788 198.279 24.7426C197.705 24.3064 196.974 24.0881 196.086 24.0881ZM105.367 14.9388C102.367 14.9388 100.106 15.4811 98.5825 16.5655C97.0592 17.6272 96.2978 19.4279 96.2977 21.9666V24.4249C96.2977 27.0329 97.0592 28.8801 98.5825 29.9648C100.106 31.0261 102.367 31.5568 105.367 31.5568C108.345 31.5568 110.596 31.0265 112.119 29.9648C113.642 28.88 114.404 27.0329 114.404 24.4249V21.9666C114.404 19.4279 113.642 17.6272 112.119 16.5655C110.596 15.4807 108.345 14.9388 105.367 14.9388ZM221.492 24.0516C220.159 24.0516 219.145 24.4801 218.451 25.3363C217.929 25.979 217.603 26.8306 217.473 27.8919H225.225C225.105 26.7572 224.801 25.8768 224.303 25.2513C223.673 24.4517 222.736 24.0517 221.492 24.0516ZM88.3238 15.562H65.8394L67.0339 11.3034H89.52L88.3238 15.562Z" fill="white"/>
<path d="M146.313 35.1905H141.051V15.562L127.793 15.5605V35.1902H122.53V11.3022H146.315L146.313 35.1905Z" fill="white"/>
<path fill-rule="evenodd" clip-rule="evenodd" d="M45.322 0.846981H46.5046C46.7115 0.846981 46.8702 0.896922 46.9808 0.996803C47.0932 1.09668 47.1493 1.23937 47.1493 1.42487C47.1493 1.56934 47.1172 1.68794 47.053 1.78069C46.9906 1.87344 46.8979 1.93854 46.7748 1.97599L47.2136 2.693H46.7641L46.3494 2.01345H45.7287V2.693H45.322V0.846981ZM46.74 1.39811V1.45965C46.74 1.53277 46.7168 1.59252 46.6704 1.6389C46.6259 1.68527 46.5518 1.70846 46.4484 1.70846H45.7287V1.1493H46.4484C46.5536 1.1493 46.6285 1.17249 46.6731 1.21886C46.7177 1.26345 46.74 1.3232 46.74 1.39811Z" fill="white"/>
<path fill-rule="evenodd" clip-rule="evenodd" d="M47.9978 1.79778C47.9978 2.79065 47.193 3.59553 46.2001 3.59553C45.2072 3.59553 44.4023 2.79065 44.4023 1.79778C44.4023 0.804911 45.2072 3.05176e-05 46.2001 3.05176e-05C47.193 3.05176e-05 47.9978 0.804911 47.9978 1.79778ZM46.2001 3.38403C47.0762 3.38403 47.7863 2.67384 47.7863 1.79778C47.7863 0.92172 47.0762 0.211531 46.2001 0.211531C45.324 0.211531 44.6138 0.92172 44.6138 1.79778C44.6138 2.67384 45.324 3.38403 46.2001 3.38403Z" fill="white"/>
</svg>
