<svg width="120" height="24" viewBox="0 0 120 24" fill="none" xmlns="http://www.w3.org/2000/svg">
<path d="M0 11.5057C0 7.47834 0 5.46467 0.783771 3.92643C1.4732 2.57336 2.57328 1.47328 3.92635 0.783856C5.46459 8.48174e-05 7.47826 8.4771e-05 11.5056 8.4771e-05H12.4944C16.5217 8.4771e-05 18.5354 8.48174e-05 20.0736 0.783856C21.4267 1.47328 22.5268 2.57336 23.2162 3.92643C24 5.46467 24 7.47834 24 11.5057V12.4945C24 16.5218 24 18.5355 23.2162 20.0737C22.5268 21.4268 21.4267 22.5269 20.0736 23.2163C18.5354 24.0001 16.5217 24.0001 12.4944 24.0001H11.5056C7.47825 24.0001 5.46459 24.0001 3.92635 23.2163C2.57328 22.5269 1.4732 21.4268 0.783771 20.0737C0 18.5355 0 16.5218 0 12.4945V11.5057Z" fill="#88EF1B"/>
<path d="M12.7695 19.8466L14.7728 13.4182C15.3806 11.468 13.7236 9.56005 11.7076 9.88848L8.5523 19.8466H12.7695Z" fill="#131313"/>
<path d="M6.03649 6.05782L19.2128 3.57712L17.891 8.14843L4.78971 10.5002L6.03649 6.05782Z" fill="#131313"/>
<path d="M98.2122 11.0562C98.818 11.0562 99.3394 11.2074 99.7756 11.5102C100.216 11.8091 100.553 12.2192 100.788 12.7402C101.022 13.2612 101.138 13.849 101.138 14.5033C101.138 15.1574 101.022 15.7453 100.788 16.2663C100.554 16.7873 100.216 17.2015 99.7756 17.5085C99.3394 17.8114 98.8161 17.9633 98.2062 17.9633C97.5924 17.9633 97.0758 17.8113 96.6558 17.5085C96.5196 17.409 96.3949 17.2971 96.2799 17.1751V20.689H95.1957V11.2376H96.1584V11.9677C96.3048 11.7919 96.4699 11.6364 96.6558 11.5041C97.0798 11.2055 97.5986 11.0562 98.2122 11.0562ZM91.2088 11.0562C91.8025 11.0562 92.3116 11.1633 92.7357 11.3774C93.1637 11.5874 93.4709 11.9068 93.6567 12.3349C93.7494 12.5366 93.8078 12.7565 93.832 12.9946C93.8563 13.2288 93.8685 13.4757 93.8685 13.7342V17.781H92.911V16.7602C92.6925 17.094 92.4227 17.3601 92.0994 17.5571C91.6591 17.8277 91.1215 17.9633 90.4874 17.9633C89.9989 17.9633 89.5893 17.8736 89.2582 17.696C88.9311 17.5142 88.6822 17.2764 88.5126 16.9816C88.347 16.6867 88.2643 16.3633 88.2643 16.0119C88.2643 15.6687 88.3287 15.3717 88.4579 15.1213C88.5912 14.8669 88.777 14.6567 89.0152 14.4911C89.2535 14.3215 89.539 14.1887 89.8702 14.0918C90.1812 14.007 90.5283 13.9336 90.9119 13.873C91.2996 13.8084 91.6914 13.7502 92.0872 13.6977C92.3377 13.6645 92.5774 13.6304 92.8069 13.5987C92.7943 13.1034 92.6785 12.7303 92.457 12.4798C92.2147 12.2011 91.7944 12.0623 91.1966 12.0623C90.8009 12.0623 90.4538 12.1532 90.1549 12.3349C89.8601 12.5126 89.652 12.8033 89.5308 13.2073L88.5065 12.8982C88.664 12.3247 88.9691 11.8738 89.4214 11.5467C89.8738 11.2195 90.4697 11.0562 91.2088 11.0562ZM110.71 11.0562C111.368 11.0562 111.927 11.2074 112.388 11.5102C112.852 11.8131 113.2 12.2457 113.43 12.8071C113.664 13.3684 113.765 14.0369 113.733 14.8123H108.714C108.755 15.4391 108.925 15.9359 109.225 16.3027C109.573 16.7268 110.067 16.939 110.71 16.939C111.142 16.939 111.517 16.84 111.836 16.6421C112.155 16.4443 112.405 16.1595 112.587 15.788L113.624 16.1456C113.369 16.7231 112.985 17.1712 112.473 17.4902C111.964 17.8052 111.392 17.9633 110.758 17.9633C110.116 17.9633 109.554 17.8216 109.073 17.5388C108.597 17.2521 108.225 16.8541 107.959 16.3453C107.692 15.8323 107.559 15.2344 107.559 14.5519C107.559 13.837 107.69 13.2187 107.953 12.6977C108.215 12.1729 108.581 11.7694 109.049 11.4868C109.522 11.2 110.076 11.0562 110.71 11.0562ZM52.6836 5.42687C53.8376 5.42687 54.8651 5.5366 55.7652 5.75586C56.6651 5.96357 57.4152 6.3095 58.0152 6.79406C58.6152 7.26718 59.0708 7.89653 59.3824 8.68121C59.6939 9.46591 59.8503 10.4294 59.8503 11.5718C59.8503 12.7258 59.694 13.7067 59.3824 14.5145C59.0708 15.3108 58.6153 15.9517 58.0152 16.4364C57.4152 16.921 56.6651 17.2727 55.7652 17.492C54.8651 17.7112 53.8376 17.821 52.6836 17.821C51.5182 17.821 50.4855 17.7112 49.5855 17.492C48.6854 17.2727 47.9347 16.9211 47.3346 16.4364C46.7346 15.9517 46.279 15.3108 45.9674 14.5145C45.6559 13.7068 45.5004 12.7258 45.5004 11.5718C45.5004 10.4294 45.6559 9.46591 45.9674 8.68121C46.279 7.89648 46.7346 7.2672 47.3346 6.79406C47.9347 6.30938 48.6854 5.96358 49.5855 5.75586C50.4855 5.53665 51.5182 5.42688 52.6836 5.42687ZM82.8997 16.0059L86.1775 9.05708H87.1714V17.775H86.1471V11.426L83.1853 17.781H82.6089L79.6471 11.426V17.781H78.6228V9.05708H79.6046L82.8997 16.0059ZM103.316 14.3887L106.059 11.2376H107.46L104.57 14.5093L107.799 17.781H106.29L103.316 14.6309V17.781H102.219L102.224 11.2376H103.316V14.3887ZM119.81 12.2194H117.533V17.781H116.454V12.2194H114.176V11.2376H119.81V12.2194ZM37.7313 8.57791C39.1748 8.57791 40.3449 9.74815 40.3451 11.1916V17.5961H37.7313V8.57791ZM92.1358 14.6066C91.7966 14.651 91.4752 14.699 91.1723 14.7515C90.8694 14.8 90.5969 14.8591 90.3546 14.9277C90.177 14.9842 90.0094 15.0568 89.852 15.1456C89.6985 15.2345 89.5731 15.3497 89.4761 15.4911C89.3833 15.6284 89.3364 15.8 89.3364 16.0059C89.3364 16.1835 89.3813 16.3531 89.4701 16.5145C89.5629 16.676 89.704 16.8077 89.8937 16.9086C90.0875 17.0096 90.3405 17.0605 90.6515 17.0605C91.0391 17.0605 91.374 16.9912 91.6567 16.854C91.9435 16.7126 92.174 16.5289 92.3477 16.3027C92.5213 16.0726 92.6345 15.8224 92.6871 15.5519C92.7477 15.3499 92.7803 15.1255 92.7843 14.8791C92.7887 14.7409 92.7892 14.6205 92.7912 14.518C92.5703 14.5479 92.3519 14.5783 92.1358 14.6066ZM98.043 12.0441C97.6189 12.0441 97.267 12.1491 96.9883 12.3592C96.7098 12.5651 96.5023 12.8541 96.365 13.2255C96.2278 13.5929 96.1584 14.0187 96.1584 14.5033C96.1584 14.9799 96.2257 15.4063 96.3589 15.7819C96.4962 16.1533 96.7057 16.4464 96.9883 16.6604C97.271 16.8704 97.6331 16.9755 98.0733 16.9755C98.5054 16.9754 98.8627 16.8663 99.1454 16.6482C99.4281 16.4301 99.6403 16.1353 99.7817 15.7637C99.923 15.3881 99.9935 14.9677 99.9935 14.5033C99.9935 14.0431 99.9229 13.6273 99.7817 13.2559C99.6444 12.8843 99.4301 12.5894 99.1393 12.3713C98.8526 12.1532 98.4872 12.0441 98.043 12.0441ZM52.6836 7.4694C51.1837 7.46942 50.0529 7.74056 49.2912 8.28277C48.5296 8.8136 48.1489 9.71395 48.1489 10.9833V12.2125C48.1489 13.5165 48.5296 14.44 49.2912 14.9824C50.0529 15.5131 51.1837 15.7784 52.6836 15.7784C54.1723 15.7784 55.2978 15.5133 56.0595 14.9824C56.8211 14.44 57.2018 13.5165 57.2018 12.2125V10.9833C57.2018 9.71398 56.821 8.8136 56.0595 8.28277C55.2978 7.74039 54.1723 7.4694 52.6836 7.4694ZM110.746 12.0258C110.08 12.0258 109.573 12.2401 109.225 12.6682C108.965 12.9895 108.802 13.4153 108.737 13.946H112.612C112.553 13.3786 112.4 12.9384 112.151 12.6257C111.836 12.2258 111.368 12.0259 110.746 12.0258ZM44.1619 7.78104H32.9197L33.5169 5.6517H44.76L44.1619 7.78104Z" fill="#131313"/>
<path d="M73.1567 17.5953H70.5256V7.78104L63.8963 7.78028V17.5951H61.2652V5.65113H73.1573L73.1567 17.5953Z" fill="#131313"/>
<path fill-rule="evenodd" clip-rule="evenodd" d="M22.661 0.423506H23.2523C23.3557 0.423506 23.4351 0.448476 23.4904 0.498417C23.5466 0.548357 23.5747 0.619701 23.5747 0.712448C23.5747 0.784683 23.5586 0.843988 23.5265 0.890361C23.4953 0.936734 23.4489 0.969285 23.3874 0.988013L23.6068 1.34651H23.382L23.1747 1.00674H22.8644V1.34651H22.661V0.423506ZM23.37 0.699071V0.729838C23.37 0.766401 23.3584 0.796277 23.3352 0.819463C23.3129 0.84265 23.2759 0.854243 23.2242 0.854243H22.8644V0.574665H23.2242C23.2768 0.574665 23.3143 0.586259 23.3366 0.609445C23.3589 0.63174 23.37 0.661615 23.37 0.699071Z" fill="#131313"/>
<path fill-rule="evenodd" clip-rule="evenodd" d="M23.9989 0.898906C23.9989 1.39534 23.5965 1.79778 23.1 1.79778C22.6036 1.79778 22.2012 1.39534 22.2012 0.898906C22.2012 0.402471 22.6036 3.05176e-05 23.1 3.05176e-05C23.5965 3.05176e-05 23.9989 0.402471 23.9989 0.898906ZM23.1 1.69203C23.5381 1.69203 23.8932 1.33694 23.8932 0.898906C23.8932 0.460875 23.5381 0.105781 23.1 0.105781C22.662 0.105781 22.3069 0.460875 22.3069 0.898906C22.3069 1.33694 22.662 1.69203 23.1 1.69203Z" fill="#131313"/>
</svg>
