<svg width="24" height="24" viewBox="0 0 24 24" fill="none" xmlns="http://www.w3.org/2000/svg">
<path d="M0 11.5056C0 7.47831 0 5.46464 0.783771 3.9264C1.4732 2.57333 2.57328 1.47325 3.92635 0.783826C5.46459 5.42998e-05 7.47826 5.42535e-05 11.5056 5.42535e-05H12.4944C16.5217 5.42535e-05 18.5354 5.42998e-05 20.0736 0.783826C21.4267 1.47325 22.5268 2.57333 23.2162 3.9264C24 5.46464 24 7.47831 24 11.5056V12.4945C24 16.5218 24 18.5354 23.2162 20.0737C22.5268 21.4268 21.4267 22.5268 20.0736 23.2163C18.5354 24 16.5217 24 12.4944 24H11.5056C7.47825 24 5.46459 24 3.92635 23.2163C2.57328 22.5268 1.4732 21.4268 0.783771 20.0737C0 18.5354 0 16.5218 0 12.4945V11.5056Z" fill="#88EF1B"/>
<path d="M12.7695 19.8466L14.7728 13.4181C15.3806 11.468 13.7236 9.56002 11.7076 9.88845L8.5523 19.8466H12.7695Z" fill="#131313"/>
<path d="M6.03649 6.05779L19.2128 3.57709L17.891 8.1484L4.78971 10.5002L6.03649 6.05779Z" fill="#131313"/>
<path fill-rule="evenodd" clip-rule="evenodd" d="M23.9989 0.898876C23.9989 1.39531 23.5965 1.79775 23.1 1.79775C22.6036 1.79775 22.2012 1.39531 22.2012 0.898876C22.2012 0.40244 22.6036 0 23.1 0C23.5965 0 23.9989 0.40244 23.9989 0.898876ZM23.1 1.692C23.5381 1.692 23.8932 1.33691 23.8932 0.898876C23.8932 0.460845 23.5381 0.10575 23.1 0.10575C22.662 0.10575 22.3069 0.460845 22.3069 0.898876C22.3069 1.33691 22.662 1.692 23.1 1.692Z" fill="white"/>
</svg>
