<svg width="15" height="98" viewBox="0 0 15 98" fill="none" xmlns="http://www.w3.org/2000/svg">
<path d="M1.24074 1.65079C0.881321 1.23147 0.929883 0.600166 1.34921 0.240743C1.76853 -0.118679 2.39983 -0.0701172 2.75926 0.349209L1.24074 1.65079ZM2.0767 97.9971C1.52604 98.0394 1.0453 97.6274 1.00295 97.0767L0.312677 88.1032C0.270319 87.5526 0.682377 87.0718 1.23304 87.0295C1.78369 86.9871 2.26443 87.3992 2.30679 87.9498L2.92036 95.9262L10.8968 95.3127C11.4475 95.2703 11.9282 95.6824 11.9705 96.233C12.0129 96.7837 11.6008 97.2644 11.0502 97.3068L2.0767 97.9971ZM2 1C2.75926 0.349209 2.75968 0.349707 2.76016 0.35026C2.76037 0.350515 2.76089 0.351122 2.76133 0.351633C2.7622 0.352657 2.76326 0.353895 2.76449 0.355349C2.76696 0.358258 2.77015 0.362029 2.77405 0.366666C2.78185 0.375938 2.79248 0.388673 2.80586 0.404892C2.83262 0.43733 2.87035 0.483707 2.91832 0.544206C3.01427 0.665204 3.15117 0.842688 3.32314 1.07813C3.6671 1.54902 4.1513 2.25169 4.72864 3.19789C5.88343 5.09046 7.41024 7.95632 8.93257 11.889C11.9782 19.7568 15 31.8794 15 49H14H13C13 32.1206 10.0218 20.2432 7.06743 12.611C5.58976 8.79368 4.11657 6.03454 3.02136 4.23961C2.4737 3.34206 2.0204 2.68536 1.70811 2.25781C1.55195 2.04403 1.43105 1.88753 1.35121 1.78685C1.31129 1.73651 1.28164 1.70012 1.26299 1.67751C1.25366 1.6662 1.24708 1.65833 1.24334 1.65389C1.24148 1.65167 1.24032 1.6503 1.23988 1.64978C1.23966 1.64953 1.23962 1.64948 1.23977 1.64965C1.23984 1.64973 1.24008 1.65002 1.24012 1.65006C1.24041 1.6504 1.24074 1.65079 2 1ZM14 49H15C15 66.1206 11.9782 78.2432 8.93257 86.111C7.41024 90.0437 5.88343 92.9095 4.72864 94.8021C4.1513 95.7483 3.6671 96.451 3.32314 96.9219C3.15117 97.1573 3.01427 97.3348 2.91832 97.4558C2.87035 97.5163 2.83262 97.5627 2.80586 97.5951C2.79248 97.6113 2.78185 97.6241 2.77405 97.6333C2.77015 97.638 2.76696 97.6417 2.76449 97.6447C2.76326 97.6461 2.7622 97.6473 2.76133 97.6484C2.76089 97.6489 2.76037 97.6495 2.76016 97.6497C2.75968 97.6503 2.75926 97.6508 2 97C1.24074 96.3492 1.24041 96.3496 1.24012 96.3499C1.24008 96.35 1.23984 96.3503 1.23977 96.3503C1.23962 96.3505 1.23966 96.3505 1.23988 96.3502C1.24032 96.3497 1.24148 96.3483 1.24334 96.3461C1.24708 96.3417 1.25366 96.3338 1.26299 96.3225C1.28164 96.2999 1.31129 96.2635 1.35121 96.2132C1.43105 96.1125 1.55195 95.956 1.70811 95.7422C2.0204 95.3146 2.4737 94.6579 3.02136 93.7604C4.11657 91.9655 5.58976 89.2063 7.06743 85.389C10.0218 77.7568 13 65.8794 13 49H14Z" fill="#ACACAC"/>
</svg>
