<svg width="1184" height="353" viewBox="0 0 1184 353" fill="none" xmlns="http://www.w3.org/2000/svg">
<path d="M21.4619 244.239C33.3151 244.239 42.9246 253.848 42.9248 265.701C42.9248 277.554 33.3152 287.164 21.4619 287.164C9.6088 287.164 0 277.554 0 265.701C0.000174203 253.848 9.6089 244.239 21.4619 244.239ZM107.311 244.239C119.164 244.239 128.773 253.848 128.773 265.701C128.773 277.554 119.164 287.164 107.311 287.164C95.4574 287.164 85.8486 277.554 85.8486 265.701C85.8488 253.848 95.4575 244.239 107.311 244.239ZM351.525 232.158C353.023 230.876 355.231 230.876 356.729 232.158L378.548 250.839C381.211 253.119 382.743 256.449 382.743 259.954V279.164C382.743 283.582 379.161 287.164 374.743 287.164H333.511C329.092 287.164 325.511 283.582 325.511 279.164V259.954C325.511 256.449 327.044 253.119 329.707 250.839L351.525 232.158ZM827.271 232.158C828.769 230.876 830.977 230.876 832.475 232.158L854.294 250.839C856.957 253.119 858.489 256.449 858.489 259.954V279.164C858.489 283.582 854.908 287.164 850.489 287.164H809.257C804.839 287.164 801.257 283.582 801.257 279.164V259.954C801.257 256.449 802.79 253.119 805.453 250.839L827.271 232.158ZM21.4619 158.391C33.3151 158.391 42.9246 167.999 42.9248 179.853C42.9248 191.706 33.3152 201.315 21.4619 201.315C9.6088 201.315 0 191.706 0 179.853C0.000174203 168 9.6089 158.391 21.4619 158.391ZM107.311 158.391C119.164 158.391 128.773 167.999 128.773 179.853C128.773 191.706 119.164 201.315 107.311 201.315C95.4574 201.315 85.8486 191.706 85.8486 179.853C85.8488 168 95.4575 158.391 107.311 158.391ZM21.4619 72.541C33.3151 72.541 42.9246 82.1498 42.9248 94.0029C42.9248 105.856 33.3152 115.466 21.4619 115.466C9.6088 115.466 0 105.856 0 94.0029C0.000174461 82.1499 9.6089 72.5412 21.4619 72.541ZM107.311 72.541C119.164 72.541 128.773 82.1498 128.773 94.0029C128.773 105.856 119.164 115.466 107.311 115.466C95.4574 115.466 85.8486 105.856 85.8486 94.0029C85.8488 82.1499 95.4575 72.5412 107.311 72.541Z" fill="#FFC509"/>
<path d="M988.264 244.239C991.75 244.239 995.063 245.755 997.343 248.393L1010.04 263.086C1011.34 264.588 1011.34 266.815 1010.04 268.317L997.343 283.011C995.063 285.648 991.75 287.164 988.264 287.164H887.951C883.533 287.164 879.951 283.582 879.951 279.164V252.239C879.951 247.821 883.533 244.239 887.951 244.239H988.264Z" fill="#4EA9E2"/>
<path d="M755.757 244.239C759.243 244.239 762.557 245.755 764.836 248.393L777.534 263.086C778.832 264.588 778.832 266.815 777.534 268.317L764.836 283.011C762.557 285.648 759.243 287.164 755.757 287.164H655.444C651.026 287.164 647.445 283.582 647.444 279.164V252.239C647.444 247.821 651.026 244.239 655.444 244.239H755.757Z" fill="#4EA9E2"/>
<path d="M512.518 244.239C516.004 244.239 519.317 245.755 521.597 248.393L534.295 263.086C535.593 264.588 535.593 266.815 534.295 268.317L521.597 283.011C519.317 285.648 516.003 287.164 512.518 287.164H412.205C407.787 287.164 404.205 283.582 404.205 279.164V252.239C404.205 247.821 407.787 244.239 412.205 244.239H512.518Z" fill="#4EA9E2"/>
<path d="M280.011 244.239C283.497 244.239 286.81 245.755 289.09 248.393L301.788 263.086C303.086 264.588 303.086 266.815 301.788 268.317L289.09 283.011C286.81 285.648 283.497 287.164 280.011 287.164H179.698C175.28 287.164 171.698 283.582 171.698 279.164V252.239C171.698 247.821 175.28 244.239 179.698 244.239H280.011Z" fill="#4EA9E2"/>
<path d="M1076.75 72.541C1088.6 72.541 1098.21 82.1498 1098.21 94.0029C1098.21 105.856 1088.6 115.466 1076.75 115.466C1064.89 115.466 1055.28 105.856 1055.28 94.0029C1055.28 82.1499 1064.89 72.5412 1076.75 72.541Z" fill="#4EA9E2"/>
<path d="M1076.69 158.391C1088.54 158.391 1098.15 167.999 1098.15 179.853C1098.15 191.706 1088.54 201.315 1076.69 201.315C1064.84 201.315 1055.23 191.706 1055.23 179.853C1055.23 168 1064.84 158.391 1076.69 158.391Z" fill="#4EA9E2"/>
<path d="M1076.69 244.239C1088.54 244.239 1098.15 253.848 1098.15 265.701C1098.15 277.554 1088.54 287.164 1076.69 287.164C1064.84 287.164 1055.23 277.554 1055.23 265.701C1055.23 253.848 1064.84 244.239 1076.69 244.239Z" fill="#4EA9E2"/>
<path d="M1162.54 244.239C1174.39 244.239 1184 253.848 1184 265.701C1184 277.554 1174.39 287.164 1162.54 287.164C1150.68 287.164 1141.08 277.554 1141.08 265.701C1141.08 253.848 1150.68 244.239 1162.54 244.239Z" fill="#4EA9E2"/>
<path d="M1162.54 158.391C1174.39 158.391 1184 167.999 1184 179.853C1184 191.706 1174.39 201.315 1162.54 201.315C1150.68 201.315 1141.08 191.706 1141.08 179.853C1141.08 168 1150.68 158.391 1162.54 158.391Z" fill="#4EA9E2"/>
<path d="M1162.54 72.541C1174.39 72.541 1184 82.1498 1184 94.0029C1184 105.856 1174.39 115.466 1162.54 115.466C1150.68 115.466 1141.08 105.856 1141.08 94.0029C1141.08 82.1499 1150.68 72.5412 1162.54 72.541Z" fill="#4EA9E2"/>
<path d="M234.704 311.473H229.931V343.551C229.931 348.366 226.149 352.298 221.394 352.539L220.931 352.551H29.4619C24.4914 352.551 20.4619 348.521 20.4619 343.551V311.473H15.6885L21.4619 301.473L27.2354 311.473H22.4619V343.551C22.4619 347.417 25.5959 350.551 29.4619 350.551H106.311V311.473H101.537L107.311 301.473L113.084 311.473H108.311V350.551H220.931C224.796 350.551 227.931 347.417 227.931 343.551V311.473H223.156L228.931 301.473L234.704 311.473ZM835.646 311.473H830.873V343.551C830.873 348.521 826.844 352.551 821.873 352.551H362.127C357.156 352.551 353.127 348.521 353.127 343.551V311.473H348.354L354.127 301.473L359.9 311.473H355.127V343.551C355.127 347.417 358.261 350.551 362.127 350.551H591V326.675H586.227L592 316.675L597.773 326.675H593V350.551H821.873C825.739 350.551 828.873 347.417 828.873 343.551V311.473H824.1L829.873 301.473L835.646 311.473ZM1168.31 311.473H1163.54V343.551C1163.54 348.521 1159.51 352.551 1154.54 352.551H963.069L962.606 352.539C957.851 352.298 954.069 348.366 954.069 343.551V311.473H949.296L955.069 301.473L960.844 311.473H956.069V343.551C956.069 347.417 959.204 350.551 963.069 350.551H1075.69V311.473H1070.92L1076.69 301.473L1082.46 311.473H1077.69V350.551H1154.54C1158.4 350.551 1161.54 347.417 1161.54 343.551V311.473H1156.76L1162.54 301.473L1168.31 311.473ZM582.592 234.662C587.396 228.593 596.605 228.593 601.409 234.662L620.086 258.253C623.541 262.617 623.541 268.786 620.086 273.15L601.409 296.742C596.605 302.811 587.396 302.811 582.592 296.742L563.915 273.15C560.46 268.786 560.46 262.617 563.915 258.253L582.592 234.662ZM424.514 137.078L421.709 140.939L551.271 235.032L554.075 231.17L558.773 241.718L547.289 240.514L550.095 236.65L420.534 142.558L417.729 146.421L413.029 135.873L424.514 137.078ZM766.133 146.421L763.327 142.558L633.767 236.65L636.572 240.514L625.088 241.718L629.786 231.17L632.591 235.032L762.152 140.939L759.348 137.078L770.832 135.873L766.133 146.421ZM79.2832 216.045L75.9082 212.67L54.5342 234.044L57.9092 237.419L46.7559 240.408L49.7441 229.254L53.1201 232.63L74.4941 211.256L71.1182 207.88L82.2725 204.892L79.2832 216.045ZM1113.15 207.88L1109.78 211.256L1131.15 232.63L1134.53 229.254L1137.52 240.408L1126.36 237.419L1129.74 234.044L1108.36 212.67L1104.99 216.045L1102 204.892L1113.15 207.88ZM310.544 163.295L306.682 160.489L259.751 225.108L263.614 227.914L253.066 232.613L254.271 221.129L258.133 223.934L305.063 159.313L301.201 156.509L311.749 151.811L310.544 163.295ZM406.705 156.509L402.843 159.313L449.773 223.934L453.635 221.129L454.84 232.613L444.292 227.914L448.155 225.108L401.225 160.489L397.362 163.295L396.157 151.811L406.705 156.509ZM786.499 163.295L782.637 160.489L735.706 225.108L739.569 227.914L729.021 232.613L730.227 221.129L734.088 223.934L781.019 159.313L777.156 156.509L787.704 151.811L786.499 163.295ZM882.66 156.509L878.798 159.313L925.729 223.934L929.59 221.129L930.795 232.613L920.247 227.914L924.11 225.108L877.18 160.489L873.317 163.295L872.112 151.811L882.66 156.509ZM359.9 175.544H355.127V205.622H359.9L354.127 215.622L348.354 205.622H353.127V175.544H348.354L354.127 165.544L359.9 175.544ZM835.508 175.544H830.734V205.622H835.508L829.734 215.622L823.961 205.622H828.734V175.544H823.961L829.734 165.544L835.508 175.544ZM286.163 117.542L278.627 126.291L277.052 121.784L150.866 165.873L152.441 170.379L141.097 168.228L148.633 159.479L150.207 163.984L276.393 119.896L274.818 115.39L286.163 117.542ZM907.469 119.896L1033.65 163.984L1035.23 159.479L1042.76 168.228L1031.42 170.379L1033 165.873L906.81 121.784L905.234 126.291L897.698 117.542L909.043 115.39L907.469 119.896ZM79.2832 130.45L75.9082 127.075L54.5342 148.449L57.9092 151.824L46.7559 154.813L49.7441 143.659L53.1201 147.035L74.4941 125.661L71.1182 122.285L82.2725 119.297L79.2832 130.45ZM1113.15 122.285L1109.78 125.661L1131.15 147.035L1134.53 143.659L1137.52 154.813L1126.36 151.824L1129.74 148.449L1108.36 127.075L1104.99 130.45L1102 119.297L1113.15 122.285ZM354.127 36.7705C385.736 36.7705 411.359 62.3943 411.359 94.0029C411.359 125.612 385.736 151.235 354.127 151.235C322.518 151.235 296.895 125.612 296.895 94.0029C296.895 62.3944 322.518 36.7706 354.127 36.7705ZM829.734 36.7705C861.343 36.7706 886.967 62.3944 886.967 94.0029C886.967 125.612 861.343 151.235 829.734 151.235C798.126 151.235 772.502 125.612 772.502 94.0029C772.502 62.3943 798.126 36.7705 829.734 36.7705ZM283.033 94.0039L273.033 99.7773V95.0039H153.528V99.7773L143.528 94.0039L153.528 88.2305V93.0039H273.033V88.2305L283.033 94.0039ZM1040.33 94.0039L1030.33 99.7773V95.0039H910.827V99.7773L900.827 94.0039L910.827 88.2305V93.0039H1030.33V88.2305L1040.33 94.0039ZM346.909 0C351.88 0 355.909 4.02944 355.909 9V12.4619H360.683L354.909 22.4619L349.136 12.4619H353.909V9C353.909 5.13401 350.775 2 346.909 2H29.3506C25.4846 2 22.3506 5.13401 22.3506 9V48.2324H27.124L21.3506 58.2324L15.5771 48.2324H20.3506V9C20.3506 4.02944 24.38 2.64489e-07 29.3506 0H346.909ZM1155.43 0C1160.4 2.64489e-07 1164.43 4.02944 1164.43 9V48.2324H1169.21L1163.43 58.2324L1157.66 48.2324H1162.43V9C1162.43 5.13401 1159.3 2 1155.43 2H837.873C834.007 2 830.873 5.13401 830.873 9V12.4619H835.646L829.873 22.4619L824.1 12.4619H828.873V9C828.873 4.02944 832.902 0 837.873 0H1155.43Z" fill="#00B000"/>
</svg>
