<svg width="101" height="26" viewBox="0 0 101 26" fill="none" xmlns="http://www.w3.org/2000/svg">
<path d="M0.469595 24.4961C0.191315 24.9732 0.352451 25.5855 0.829503 25.8638C1.30655 26.1421 1.91887 25.9809 2.19715 25.5039L0.469595 24.4961ZM97.0789 25.9671C97.613 26.1076 98.1599 25.7886 98.3004 25.2545L100.591 16.5508C100.731 16.0167 100.412 15.4698 99.8783 15.3293C99.3442 15.1887 98.7973 15.5077 98.6567 16.0418L96.6208 23.7784L88.8842 21.7425C88.3501 21.6019 87.8032 21.921 87.6626 22.4551C87.5221 22.9892 87.8411 23.5361 88.3752 23.6766L97.0789 25.9671ZM1.33337 25C2.19715 25.5039 2.19695 25.5042 2.19679 25.5045C2.19681 25.5045 2.19671 25.5046 2.19675 25.5046C2.19683 25.5044 2.19712 25.5039 2.19762 25.5031C2.19863 25.5014 2.20048 25.4982 2.20319 25.4937C2.20861 25.4846 2.21745 25.4698 2.22972 25.4495C2.25427 25.409 2.29256 25.3467 2.34478 25.2638C2.44922 25.0982 2.60933 24.8509 2.82653 24.5336C3.261 23.8989 3.92354 22.9846 4.8256 21.8838C6.63025 19.6815 9.38989 16.737 13.1955 13.7907C20.7983 7.90468 32.588 2 49.3334 2V1V0C32.0787 0 19.8684 6.09532 11.9712 12.2093C8.02686 15.263 5.1615 18.3185 3.27865 20.6162C2.33696 21.7654 1.64013 22.7261 1.17616 23.4039C0.944142 23.7428 0.770261 24.0112 0.653022 24.1971C0.594399 24.2901 0.549928 24.3624 0.519421 24.4128C0.504168 24.4379 0.492404 24.4576 0.484108 24.4715C0.47996 24.4785 0.476678 24.4841 0.474261 24.4882C0.473052 24.4902 0.472059 24.4919 0.471281 24.4932C0.470893 24.4939 0.470471 24.4946 0.470277 24.495C0.469909 24.4956 0.469595 24.4961 1.33337 25ZM49.3334 1V2C66.0787 2 77.8684 7.90468 85.4712 13.7907C89.2769 16.737 92.0365 19.6815 93.8411 21.8838C94.7432 22.9846 95.4058 23.8989 95.8402 24.5336C96.0574 24.8509 96.2175 25.0982 96.322 25.2638C96.3742 25.3467 96.4125 25.409 96.437 25.4495C96.4493 25.4698 96.4581 25.4846 96.4636 25.4937C96.4663 25.4982 96.4681 25.5014 96.4691 25.5031C96.4696 25.5039 96.4699 25.5044 96.47 25.5046C96.47 25.5046 96.4699 25.5045 96.47 25.5045C96.4698 25.5042 96.4696 25.5039 97.3334 25C98.1972 24.4961 98.1968 24.4956 98.1965 24.495C98.1963 24.4946 98.1959 24.4939 98.1955 24.4932C98.1947 24.4919 98.1937 24.4902 98.1925 24.4882C98.1901 24.4841 98.1868 24.4785 98.1826 24.4715C98.1743 24.4576 98.1626 24.4379 98.1473 24.4128C98.1168 24.3624 98.0723 24.2901 98.0137 24.1971C97.8965 24.0112 97.7226 23.7428 97.4906 23.4039C97.0266 22.7261 96.3298 21.7654 95.3881 20.6162C93.5052 18.3185 90.6399 15.263 86.6955 12.2093C78.7983 6.09532 66.588 0 49.3334 0V1Z" fill="#ACACAC"/>
</svg>
