<svg width="24" height="24" viewBox="0 0 24 24" fill="none" xmlns="http://www.w3.org/2000/svg">
<path d="M18.7951 4.51204C18.989 4.38428 19.2522 4.40605 19.423 4.57649C19.5939 4.7474 19.6157 5.0113 19.4874 5.2054L19.423 5.28353L12.7062 12.0003L19.423 18.7171L19.4874 18.7952C19.6156 18.9893 19.5938 19.2533 19.423 19.4242C19.2521 19.5947 18.989 19.6156 18.7951 19.4876L18.716 19.4242L11.9992 12.7064L5.28333 19.4232C5.08807 19.6184 4.77155 19.6184 4.5763 19.4232C4.38138 19.2279 4.38117 18.9113 4.5763 18.7161L11.2921 11.9993L4.5763 5.28353L4.51185 5.2054C4.38381 5.01135 4.40551 4.74731 4.5763 4.57649C4.74712 4.40569 5.01115 4.38401 5.20521 4.51204L5.28333 4.57649L11.9992 11.2923L18.716 4.57649L18.7951 4.51204Z" fill="currentColor"/>
</svg>
