<svg width="15" height="98" viewBox="0 0 15 98" fill="none" xmlns="http://www.w3.org/2000/svg">
<path d="M13.7593 1.65079C14.1187 1.23147 14.0701 0.600166 13.6508 0.240743C13.2315 -0.118679 12.6002 -0.0701172 12.2407 0.349209L13.7593 1.65079ZM12.9233 97.9971C13.474 98.0394 13.9547 97.6274 13.9971 97.0767L14.6873 88.1032C14.7297 87.5526 14.3176 87.0718 13.767 87.0295C13.2163 86.9871 12.7356 87.3992 12.6932 87.9498L12.0796 95.9262L4.10321 95.3127C3.55255 95.2703 3.07181 95.6824 3.02946 96.233C2.9871 96.7837 3.39916 97.2644 3.94981 97.3068L12.9233 97.9971ZM13 1C12.2407 0.349209 12.2403 0.349707 12.2398 0.35026C12.2396 0.350515 12.2391 0.351122 12.2387 0.351633C12.2378 0.352657 12.2367 0.353895 12.2355 0.355349C12.233 0.358258 12.2298 0.362029 12.2259 0.366666C12.2182 0.375938 12.2075 0.388673 12.1941 0.404892C12.1674 0.43733 12.1297 0.483707 12.0817 0.544206C11.9857 0.665204 11.8488 0.842688 11.6769 1.07813C11.3329 1.54902 10.8487 2.25169 10.2714 3.19789C9.11657 5.09046 7.58976 7.95632 6.06743 11.889C3.02184 19.7568 0 31.8794 0 49H1H2C2 32.1206 4.97816 20.2432 7.93257 12.611C9.41024 8.79368 10.8834 6.03454 11.9786 4.23961C12.5263 3.34206 12.9796 2.68536 13.2919 2.25781C13.448 2.04403 13.569 1.88753 13.6488 1.78685C13.6887 1.73651 13.7184 1.70012 13.737 1.67751C13.7463 1.6662 13.7529 1.65833 13.7567 1.65389C13.7585 1.65167 13.7597 1.6503 13.7601 1.64978C13.7603 1.64953 13.7604 1.64948 13.7602 1.64965C13.7602 1.64973 13.7599 1.65002 13.7599 1.65006C13.7596 1.6504 13.7593 1.65079 13 1ZM1 49H0C0 66.1206 3.02184 78.2432 6.06743 86.111C7.58976 90.0437 9.11657 92.9095 10.2714 94.8021C10.8487 95.7483 11.3329 96.451 11.6769 96.9219C11.8488 97.1573 11.9857 97.3348 12.0817 97.4558C12.1297 97.5163 12.1674 97.5627 12.1941 97.5951C12.2075 97.6113 12.2182 97.6241 12.2259 97.6333C12.2298 97.638 12.233 97.6417 12.2355 97.6447C12.2367 97.6461 12.2378 97.6473 12.2387 97.6484C12.2391 97.6489 12.2396 97.6495 12.2398 97.6497C12.2403 97.6503 12.2407 97.6508 13 97C13.7593 96.3492 13.7596 96.3496 13.7599 96.3499C13.7599 96.35 13.7602 96.3503 13.7602 96.3503C13.7604 96.3505 13.7603 96.3505 13.7601 96.3502C13.7597 96.3497 13.7585 96.3483 13.7567 96.3461C13.7529 96.3417 13.7463 96.3338 13.737 96.3225C13.7184 96.2999 13.6887 96.2635 13.6488 96.2132C13.569 96.1125 13.448 95.956 13.2919 95.7422C12.9796 95.3146 12.5263 94.6579 11.9786 93.7604C10.8834 91.9655 9.41024 89.2063 7.93257 85.389C4.97816 77.7568 2 65.8794 2 49H1Z" fill="#ACACAC"/>
</svg>
