<svg width="184" height="32" viewBox="0 0 184 32" fill="none" xmlns="http://www.w3.org/2000/svg">
<path d="M15.9268 13.1847C18.6149 12.7468 20.8242 15.2907 20.014 17.8909L17.3429 26.4623H11.72L15.9268 13.1847ZM24.1709 10.8645C17.3491 12.089 13.5245 12.7755 6.7027 14L8.36499 8.07697L25.9334 4.76944L24.1709 10.8645ZM31.1166 0C31.7784 7.83474e-05 32.3148 0.536781 32.3148 1.19865C32.3147 1.86045 31.7784 2.39681 31.1166 2.39689C30.4547 2.39689 29.918 1.86049 29.9179 1.19865C29.9179 0.536732 30.4546 0 31.1166 0ZM31.1166 0.14116C30.5325 0.14116 30.0591 0.614605 30.0591 1.19865C30.0592 1.78262 30.5326 2.25613 31.1166 2.25613C31.7005 2.25605 32.174 1.78257 32.174 1.19865C32.174 0.614653 31.7005 0.141239 31.1166 0.14116ZM31.3194 0.564642C31.4573 0.564642 31.5633 0.59784 31.637 0.664428C31.7119 0.730995 31.7493 0.825985 31.7493 0.949588C31.7493 1.04588 31.728 1.12506 31.6853 1.18688C31.6437 1.24868 31.5819 1.29211 31.4999 1.31709L31.7923 1.79493H31.4926L31.2159 1.34224H30.8022V1.79493H30.5312V0.564642H31.3194ZM30.8022 1.13861H31.2821C31.351 1.13861 31.4004 1.12327 31.4301 1.09237C31.461 1.06146 31.4764 1.02146 31.4764 0.972709V0.93174C31.4763 0.881946 31.4617 0.842169 31.4321 0.812484C31.4024 0.781568 31.3522 0.765836 31.2821 0.765836H30.8022V1.13861Z" fill="#131313"/>
<path d="M70.5551 7.2364C72.0937 7.2364 73.4632 7.38256 74.6633 7.67489C75.8635 7.95185 76.8637 8.41349 77.6638 9.05972C78.4639 9.69057 79.0717 10.5292 79.4871 11.5755C79.9026 12.6217 80.1102 13.9065 80.1102 15.4298C80.1102 16.9685 79.9026 18.2764 79.4871 19.3535C79.0717 20.4152 78.4639 21.2692 77.6638 21.9155C76.8637 22.5617 75.8635 23.0311 74.6633 23.3234C73.4632 23.6157 72.0937 23.7619 70.5551 23.7619C69.001 23.7619 67.6239 23.6158 66.4237 23.3234C65.2236 23.0311 64.2233 22.5617 63.4232 21.9155C62.6231 21.2692 62.0153 20.4151 61.5999 19.3535C61.1845 18.2764 60.9769 16.9684 60.9769 15.4298C60.9769 13.9065 61.1845 12.6217 61.5999 11.5755C62.0153 10.5292 62.6232 9.69057 63.4232 9.05972C64.2233 8.41349 65.2236 7.95185 66.4237 7.67489C67.6239 7.38254 69.001 7.2364 70.5551 7.2364ZM121.126 14.453C121.998 14.453 122.749 14.6493 123.38 15.0424C124.01 15.4301 124.492 15.9715 124.826 16.6662C125.165 17.3555 125.334 18.1499 125.334 19.0493C125.334 19.9594 125.165 20.762 124.826 21.4567C124.486 22.146 124.001 22.6873 123.371 23.0804C122.741 23.4681 121.993 23.6617 121.126 23.6617C120.259 23.6617 119.51 23.4654 118.88 23.0723C118.256 22.6792 117.773 22.1352 117.434 21.4405C117.095 20.7458 116.925 19.9486 116.925 19.0493C116.925 18.1338 117.098 17.3315 117.442 16.6422C117.787 15.953 118.274 15.4171 118.904 15.0347C119.534 14.647 120.275 14.453 121.126 14.453ZM146.828 14.453C147.748 14.453 148.54 14.679 149.203 15.1312C149.87 15.5836 150.317 16.2032 150.544 16.9895L149.122 17.4174C148.939 16.9113 148.64 16.5182 148.225 16.2382C147.816 15.9582 147.345 15.818 146.812 15.818C146.214 15.818 145.721 15.9582 145.333 16.2382C144.945 16.5129 144.657 16.8953 144.469 17.3853C144.28 17.87 144.183 18.4273 144.178 19.0574C144.189 20.0267 144.412 20.8103 144.848 21.408C145.29 22.0004 145.945 22.2968 146.812 22.2968C147.383 22.2967 147.857 22.1674 148.233 21.909C148.61 21.6451 148.896 21.2653 149.089 20.77L150.544 21.1496C150.242 21.9628 149.771 22.5847 149.13 23.0155C148.489 23.4463 147.716 23.6617 146.812 23.6617C145.929 23.6617 145.177 23.4655 144.558 23.0723C143.944 22.6738 143.475 22.1271 143.152 21.4324C142.829 20.7376 142.662 19.9459 142.651 19.0574C142.662 18.1472 142.832 17.3474 143.16 16.658C143.494 15.9634 143.971 15.4224 144.59 15.0347C145.209 14.647 145.955 14.453 146.828 14.453ZM180.137 14.453C180.929 14.453 181.607 14.5956 182.173 14.881C182.744 15.161 183.153 15.5866 183.401 16.1575C183.525 16.4267 183.603 16.7201 183.635 17.0377C183.667 17.3501 183.683 17.6787 183.683 18.0234V23.4196H182.407V22.0595C182.116 22.5042 181.756 22.8582 181.325 23.1206C180.738 23.4814 180.021 23.6617 179.176 23.6617C178.524 23.6617 177.978 23.5433 177.536 23.3064C177.1 23.064 176.769 22.7462 176.543 22.3531C176.322 21.96 176.211 21.5293 176.211 21.0608C176.211 20.603 176.298 20.207 176.47 19.8731C176.648 19.5339 176.895 19.2538 177.213 19.033C177.531 18.8069 177.911 18.6293 178.352 18.5C178.767 18.3869 179.23 18.29 179.741 18.2092C180.258 18.123 180.781 18.0447 181.308 17.9747C181.643 17.9304 181.963 17.8859 182.269 17.8437C182.252 17.1829 182.097 16.6856 181.801 16.3514C181.478 15.9798 180.918 15.7936 180.121 15.7936C179.593 15.7936 179.13 15.9152 178.732 16.1575C178.339 16.3944 178.061 16.782 177.899 17.3204L176.535 16.9087C176.745 16.144 177.151 15.5435 177.754 15.1073C178.357 14.6711 179.152 14.453 180.137 14.453ZM115.47 23.4196H114.033V13.1522H109.347C109.315 13.6422 109.28 14.1676 109.242 14.7276C109.21 15.2823 109.167 15.8611 109.113 16.4642C109.059 17.0673 108.995 17.6896 108.919 18.3305C108.844 18.9713 108.75 19.6229 108.637 20.2852C108.545 20.8184 108.435 21.3059 108.305 21.7475C108.182 22.189 108.007 22.5579 107.78 22.8541C107.56 23.1503 107.266 23.3524 106.9 23.4601C106.539 23.5678 106.073 23.5542 105.502 23.4196V22.1674C105.788 22.1943 106.025 22.181 106.213 22.1272C106.402 22.0733 106.555 21.9573 106.673 21.7796C106.797 21.6019 106.905 21.3433 106.997 21.004C107.088 20.6594 107.177 20.2125 107.263 19.6634C107.376 19.0171 107.471 18.3652 107.546 17.7082C107.621 17.0459 107.686 16.3834 107.74 15.721C107.799 15.0533 107.847 14.3908 107.885 13.7338C107.923 13.0715 107.955 12.4226 107.982 11.7872H115.47V23.4196ZM50.621 11.4375C52.5458 11.4375 54.1062 12.998 54.1062 14.9227V23.4617H50.621V11.4375ZM97.8538 23.4613H94.3459V10.3752L85.5067 10.3748V23.4609H81.9984V7.53576H97.8546L97.8538 23.4613ZM132.849 16.0605H128.228V23.4196H126.79V14.6952H132.849V16.0605ZM135.437 21.0365L140.017 14.6952H141.197V23.4196H139.807V16.9895L135.235 23.4196H134.048V14.6952H135.437V21.0365ZM158.497 16.0038H155.46V23.4196H154.022V16.0038H150.984V14.6952H158.497V16.0038ZM161.084 21.0365L165.665 14.6952H166.844V23.4196H165.455V16.9895L160.882 23.4196H159.695V14.6952H161.084V21.0365ZM170.237 18.8959L173.897 14.6952H175.763L171.91 19.0574L176.215 23.4196H174.204L170.237 19.2188V23.4196H168.775L168.783 14.6952H170.237V18.8959ZM181.373 19.1868C180.921 19.246 180.493 19.3106 180.089 19.3807C179.685 19.4453 179.321 19.5232 178.998 19.6147C178.761 19.6901 178.538 19.7871 178.328 19.9055C178.123 20.024 177.956 20.1775 177.827 20.3659C177.703 20.549 177.641 20.778 177.641 21.0527C177.641 21.2896 177.7 21.5159 177.819 21.7313C177.943 21.9467 178.131 22.1216 178.384 22.2562C178.643 22.3908 178.98 22.4582 179.394 22.4582C179.911 22.4582 180.358 22.3667 180.735 22.1836C181.118 21.9951 181.425 21.7501 181.656 21.4486C181.888 21.1416 182.038 20.8075 182.108 20.4467C182.189 20.1774 182.232 19.8786 182.238 19.5502C182.244 19.366 182.248 19.2054 182.25 19.0687C181.955 19.1088 181.662 19.1489 181.373 19.1868ZM121.126 15.818C120.517 15.818 120.016 15.9555 119.623 16.2301C119.23 16.5048 118.937 16.8844 118.743 17.3691C118.549 17.8538 118.452 18.4138 118.452 19.0493C118.452 20.0294 118.678 20.8156 119.131 21.408C119.583 22.0004 120.248 22.2968 121.126 22.2968C122.031 22.2968 122.704 21.9949 123.145 21.3918C123.587 20.7887 123.808 20.0078 123.808 19.0493C123.808 18.0638 123.584 17.2802 123.137 16.6986C122.69 16.1116 122.02 15.818 121.126 15.818ZM70.5551 9.95982C68.5549 9.95983 67.047 10.3214 66.0315 11.0445C65.0159 11.7523 64.5083 12.9527 64.5083 14.6453V16.2836C64.5083 18.0223 65.016 19.2533 66.0315 19.9765C67.047 20.6843 68.5548 21.0385 70.5551 21.0385C72.54 21.0385 74.0405 20.6843 75.056 19.9765C76.0714 19.2533 76.5791 18.0222 76.5791 16.2836V14.6453C76.5791 12.9528 76.0715 11.7523 75.056 11.0445C74.0405 10.3213 72.54 9.95982 70.5551 9.95982ZM59.1941 10.3752H44.2043L45.001 7.53616H59.9908L59.1941 10.3752Z" fill="#131313"/>
<path fill-rule="evenodd" clip-rule="evenodd" d="M15.9268 13.1847C18.6149 12.7468 20.8242 15.2907 20.014 17.8909L17.3429 26.4623H11.72L15.9268 13.1847ZM24.1709 10.8645L6.7027 14L8.36499 8.07697L25.9334 4.76944L24.1709 10.8645Z" fill="#131313"/>
<path fill-rule="evenodd" clip-rule="evenodd" d="M15.6572 0H16.9756C22.3454 0 25.0303 0 27.0813 1.04503C28.8854 1.96426 30.3521 3.43104 31.2714 5.23514C32.3164 7.28612 32.3164 9.97101 32.3164 15.3408V16.6592C32.3164 22.029 32.3164 24.7139 31.2714 26.7649C30.3521 28.569 28.8854 30.0357 27.0813 30.955C25.0303 32 22.3454 32 16.9756 32H15.6572C10.2874 32 7.60253 32 5.55154 30.955C3.74745 30.0357 2.28067 28.569 1.36144 26.7649C0.316406 24.7139 0.316406 22.029 0.316406 16.6592V15.3408C0.316406 9.97101 0.316406 7.28612 1.36144 5.23514C2.28067 3.43104 3.74745 1.96426 5.55154 1.04503C7.60253 0 10.2874 0 15.6572 0ZM20.014 17.8909C20.8242 15.2907 18.6149 12.7468 15.9268 13.1847L11.72 26.4623H17.3429L20.014 17.8909ZM6.7027 14L24.1709 10.8645L25.9334 4.76944L8.36499 8.07697L6.7027 14Z" fill="#1BEFD3"/>
</svg>
