<svg width="170" height="32" viewBox="0 0 170 32" fill="none" xmlns="http://www.w3.org/2000/svg">
<path d="M156.968 14.4531C157.776 14.4531 158.471 14.6548 159.052 15.0587C159.639 15.4572 160.089 16.0039 160.402 16.6987C160.714 17.3934 160.87 18.1769 160.87 19.0493C160.87 19.9217 160.714 20.7052 160.402 21.3999C160.089 22.0946 159.639 22.6468 159.052 23.0561C158.471 23.46 157.773 23.6617 156.96 23.6617C156.142 23.6617 155.452 23.46 154.892 23.0561C154.711 22.9238 154.545 22.7761 154.392 22.614V27.297H152.946V14.6952H154.23V15.6643C154.425 15.4309 154.645 15.2263 154.892 15.0506C155.458 14.6521 156.15 14.4531 156.968 14.4531ZM16.5068 13.1851C19.1949 12.7472 21.4043 15.291 20.594 17.8912L17.9229 26.4626H12.3L16.5068 13.1851ZM71.1349 7.23648C72.6736 7.23648 74.043 7.38264 75.2432 7.67497C76.4433 7.95192 77.4435 8.41358 78.2436 9.05979C79.0437 9.69064 79.6515 10.5292 80.067 11.5755C80.4824 12.6218 80.6904 13.9066 80.6904 15.4298C80.6904 16.9685 80.4824 18.2764 80.067 19.3535C79.6515 20.4152 79.0438 21.2692 78.2436 21.9155C77.4435 22.5617 76.4433 23.0311 75.2432 23.3234C74.043 23.6158 72.6736 23.7619 71.1349 23.7619C69.5809 23.7619 68.2037 23.6158 67.0036 23.3234C65.8034 23.0311 64.8032 22.5617 64.0031 21.9155C63.203 21.2693 62.5952 20.4152 62.1798 19.3535C61.7644 18.2765 61.5567 16.9685 61.5567 15.4298C61.5568 13.9066 61.7644 12.6218 62.1798 11.5755C62.5952 10.5293 63.203 9.69064 64.0031 9.05979C64.8032 8.41357 65.8035 7.95193 67.0036 7.67497C68.2037 7.38262 69.5809 7.23648 71.1349 7.23648ZM111.365 11.5447C112.496 11.5447 113.457 11.7979 114.249 12.304C115.04 12.8103 115.646 13.5186 116.066 14.4287C116.492 15.3388 116.71 16.397 116.721 17.6032C116.737 18.7341 116.538 19.7575 116.123 20.673C115.709 21.5886 115.097 22.3156 114.289 22.8541C113.487 23.3927 112.512 23.6617 111.365 23.6617C110.52 23.6617 109.755 23.5192 109.071 23.2338C108.392 22.9484 107.819 22.5309 107.35 21.9816C106.882 21.4323 106.54 20.759 106.324 19.962L107.738 19.5985C107.986 20.4225 108.422 21.0798 109.047 21.5699C109.671 22.06 110.42 22.2994 111.293 22.2887C111.89 22.2779 112.45 22.165 112.973 21.9496C113.5 21.7288 113.934 21.3865 114.273 20.9233C114.585 20.5195 114.804 20.0968 114.927 19.6553C115.051 19.2083 115.13 18.7504 115.162 18.2818H110.945V16.9169H115.17C115.105 16.1253 114.914 15.4278 114.596 14.8246C114.284 14.2215 113.85 13.753 113.296 13.4191C112.746 13.0799 112.079 12.9155 111.293 12.9263C110.366 12.937 109.588 13.1956 108.958 13.7018C108.328 14.2027 107.908 14.8893 107.698 15.7616L106.244 15.5515C106.534 14.2752 107.129 13.2896 108.029 12.5949C108.928 11.8948 110.04 11.5447 111.365 11.5447ZM129.452 14.4531C130.373 14.4531 131.164 14.679 131.827 15.1313C132.495 15.5837 132.942 16.2032 133.168 16.9895L131.746 17.4174C131.563 16.9113 131.264 16.5183 130.849 16.2383C130.44 15.9583 129.969 15.818 129.436 15.818C128.838 15.8181 128.345 15.9583 127.958 16.2383C127.57 16.5129 127.282 16.8953 127.093 17.3854C126.905 17.87 126.808 18.4274 126.802 19.0574C126.813 20.0267 127.037 20.8103 127.473 21.408C127.914 22.0004 128.569 22.2968 129.436 22.2968C130.006 22.2968 130.48 22.1674 130.857 21.909C131.234 21.6451 131.52 21.2654 131.714 20.77L133.168 21.1497C132.866 21.9628 132.395 22.5847 131.754 23.0156C131.113 23.4464 130.34 23.6617 129.436 23.6617C128.553 23.6617 127.801 23.4655 127.182 23.0724C126.568 22.6738 126.1 22.1271 125.776 21.4324C125.453 20.7377 125.286 19.946 125.275 19.0574C125.286 18.1473 125.456 17.3474 125.785 16.6581C126.118 15.9635 126.595 15.4225 127.214 15.0348C127.834 14.647 128.579 14.4531 129.452 14.4531ZM147.29 14.4531C148.162 14.4531 148.913 14.6494 149.543 15.0425C150.173 15.4302 150.655 15.9715 150.989 16.6662C151.329 17.3555 151.498 18.15 151.498 19.0493C151.498 19.9594 151.329 20.762 150.989 21.4567C150.65 22.146 150.165 22.6874 149.535 23.0805C148.905 23.4681 148.156 23.6617 147.29 23.6617C146.423 23.6617 145.674 23.4654 145.044 23.0724C144.419 22.6792 143.937 22.1352 143.598 21.4405C143.259 20.7458 143.089 19.9487 143.089 19.0493C143.089 18.1339 143.261 17.3316 143.606 16.6423C143.951 15.953 144.438 15.4171 145.068 15.0348C145.698 14.647 146.439 14.4531 147.29 14.4531ZM51.201 11.4376C53.1256 11.4377 54.6857 12.9981 54.6857 14.9228V23.4618H51.201V11.4376ZM98.434 23.4618H94.9257V10.3753H86.0865V23.4614H82.5782V7.53583H98.434V23.4618ZM119.46 18.896L123.119 14.6952H124.985L121.132 19.0574L125.437 23.4196H123.426L119.46 19.2189V23.4196H117.997L118.005 14.6952H119.46V18.896ZM141.634 23.4196H140.197V16.0606H135.923V23.4196H134.485V14.6952H141.634V23.4196ZM169.104 16.0038H166.066V23.4196H164.628V16.0038H161.591V14.6952H169.104V16.0038ZM156.742 15.7698C156.177 15.7698 155.708 15.9096 155.337 16.1896C154.965 16.4642 154.688 16.8494 154.505 17.3448C154.321 17.8349 154.23 18.4031 154.23 19.0493C154.23 19.6847 154.319 20.2529 154.496 20.7538C154.68 21.2492 154.96 21.6398 155.337 21.9252C155.714 22.2052 156.196 22.345 156.783 22.3451C157.359 22.3451 157.835 22.1998 158.212 21.909C158.589 21.6182 158.872 21.2249 159.061 20.7294C159.249 20.2286 159.343 19.6686 159.343 19.0493C159.343 18.4354 159.249 17.8808 159.061 17.3854C158.877 16.8899 158.592 16.4966 158.204 16.2058C157.822 15.9151 157.335 15.7698 156.742 15.7698ZM147.29 15.818C146.681 15.818 146.18 15.9555 145.787 16.2302C145.394 16.5048 145.1 16.8845 144.906 17.3692C144.713 17.8538 144.616 18.4139 144.616 19.0493C144.616 20.0294 144.842 20.8157 145.294 21.408C145.747 22.0004 146.412 22.2968 147.29 22.2968C148.194 22.2968 148.868 21.995 149.309 21.3918C149.751 20.7887 149.972 20.0078 149.972 19.0493C149.972 18.0638 149.748 17.2803 149.301 16.6987C148.854 16.1117 148.184 15.818 147.29 15.818ZM71.1349 9.95989C69.1348 9.9599 67.6268 10.3214 66.6113 11.0446C65.5958 11.7523 65.0882 12.9528 65.0882 14.6453V16.2837C65.0882 18.0224 65.5958 19.2534 66.6113 19.9766C67.6268 20.6844 69.1347 21.0385 71.1349 21.0385C73.1198 21.0385 74.6203 20.6844 75.6358 19.9766C76.6512 19.2534 77.159 18.0223 77.159 16.2837V14.6453C77.159 12.9528 76.6513 11.7523 75.6358 11.0446C74.6203 10.3214 73.1198 9.95989 71.1349 9.95989ZM24.7509 10.8645L7.28276 14.0004L8.94504 8.07695L26.5134 4.76942L24.7509 10.8645ZM59.774 10.3753H44.7843L45.5809 7.53624H60.5707L59.774 10.3753ZM31.6965 0C32.3584 7.83231e-05 32.8948 0.536779 32.8948 1.19864C32.8948 1.86049 32.3584 2.39721 31.6965 2.39729C31.0346 2.39729 30.4979 1.86054 30.4979 1.19864C30.4979 0.536731 31.0346 0 31.6965 0ZM31.6965 0.14116C31.1125 0.14116 30.6391 0.614603 30.6391 1.19864C30.6391 1.78266 31.1125 2.25613 31.6965 2.25613C32.2805 2.25605 32.754 1.78261 32.754 1.19864C32.754 0.614651 32.2805 0.141238 31.6965 0.14116ZM31.8994 0.56464C32.0373 0.56464 32.1432 0.59786 32.217 0.664425C32.2919 0.731013 32.3293 0.826328 32.3293 0.94999C32.3293 1.04616 32.308 1.12511 32.2652 1.18688C32.2236 1.24866 32.1618 1.29211 32.0799 1.31709L32.3723 1.79533H32.0726L31.7959 1.34224H31.3822V1.79533H31.1112V0.56464H31.8994ZM31.3822 1.13902H31.862C31.931 1.13902 31.9804 1.12328 32.0101 1.09237C32.041 1.06148 32.0563 1.02179 32.0563 0.973112V0.932143C32.0563 0.882264 32.0418 0.842196 32.0121 0.812481C31.9824 0.781566 31.9322 0.766239 31.862 0.766239H31.3822V1.13902Z" fill="#131313"/>
<path fill-rule="evenodd" clip-rule="evenodd" d="M16.5068 13.1851C19.1949 12.7472 21.4043 15.291 20.594 17.8912L17.9229 26.4626H12.3L16.5068 13.1851ZM24.7509 10.8645L7.28276 14.0004L8.94504 8.07695L26.5134 4.76942L24.7509 10.8645Z" fill="#131313"/>
<path fill-rule="evenodd" clip-rule="evenodd" d="M16.2372 0.000101408H17.5556C22.9254 0.000101408 25.6103 0.000101408 27.6613 1.04513C29.4654 1.96436 30.9321 3.43113 31.8514 5.23522C32.8964 7.2862 32.8964 9.97108 32.8964 15.3408V16.6593C32.8964 22.029 32.8964 24.7139 31.8514 26.7649C30.9321 28.569 29.4654 30.0357 27.6613 30.955C25.6103 32 22.9254 32 17.5556 32H16.2372C10.8675 32 8.18258 32 6.1316 30.955C4.32751 30.0357 2.86074 28.569 1.94151 26.7649C0.896484 24.7139 0.896484 22.029 0.896484 16.6593V15.3408C0.896484 9.97108 0.896484 7.2862 1.94151 5.23522C2.86074 3.43113 4.32751 1.96436 6.1316 1.04513C8.18258 0.000101408 10.8675 0.000101408 16.2372 0.000101408ZM20.594 17.8912C21.4043 15.291 19.1949 12.7472 16.5068 13.1851L12.3 26.4626H17.9229L20.594 17.8912ZM7.28276 14.0004L24.7509 10.8645L26.5134 4.76942L8.94504 8.07695L7.28276 14.0004Z" fill="#FFFC4B"/>
</svg>
